<svg xmlns="http://www.w3.org/2000/svg" width="117.877" height="119.957" viewBox="0 0 117.877 119.957">
  <g id="Group_8622" data-name="Group 8622" transform="translate(-517.496 -137.872)">
    <path id="Path_17230" data-name="Path 17230" d="M8070.617-2771.433v-89.4l10.365-11.291h70.524l19.992,19.992v80.7Z" transform="translate(-7543.98 3011)" fill="none" stroke="#b5daf2" stroke-width="2" stroke-dasharray="8 5"/>
    <path id="Path_17229" data-name="Path 17229" d="M8077.095-2777.42v-80.7a7.826,7.826,0,0,1,1.625-5.389c1.944-2.2,5.409-1.645,5.409-1.645h62.749l15.919,16.474v71.264Z" transform="translate(-7543.055 3011.99)" fill="#fff"/>
    <path id="Path_17226" data-name="Path 17226" d="M8110.145-2761.193h-28.876s-17.954-2.406-17.77-23.508,18.88-22.582,18.88-22.582h11.106s4.628-24.249,32.764-19.436,27.209,25.544,27.209,25.544h10.737s15.178.926,15.178,20.732-15.178,19.25-15.178,19.25h-30.912" transform="translate(-7545.001 3017.906)" fill="#fff"/>
    <path id="Path_17225" data-name="Path 17225" d="M8110.145-2761.193h-28.876s-17.96-.739-17.77-23.508,18.88-22.582,18.88-22.582h11.106s4.628-24.249,32.764-19.436,27.209,25.544,27.209,25.544h10.737s15-.742,15.178,20.732-15.178,19.25-15.178,19.25h-30.912" transform="translate(-7545.001 3017.906)" fill="none" stroke="#6696c9" stroke-width="2"/>
    <g id="Icon_feather-arrow-up" data-name="Icon feather-arrow-up" transform="translate(566.519 214.965)">
      <path id="Path_17227" data-name="Path 17227" d="M18,31.509V7.5" transform="translate(-5.995 -7.5)" fill="none" stroke="#6696c9" stroke-linecap="round" stroke-linejoin="round" stroke-width="2"/>
      <path id="Path_17228" data-name="Path 17228" d="M7.5,19.5l12-12,12,12" transform="translate(-7.5 -7.5)" fill="none" stroke="#6696c9" stroke-linecap="round" stroke-linejoin="round" stroke-width="2"/>
    </g>
    <path id="Path_17231" data-name="Path 17231" d="M8137.989-2865.08v13.363a4.351,4.351,0,0,0,.915,2.573,4.456,4.456,0,0,0,2.59.932H8154.2Z" transform="translate(-7534.326 3012.01)" fill="#ece7e7"/>
  </g>
</svg>
