<svg xmlns="http://www.w3.org/2000/svg" width="122.31" height="115.419" viewBox="0 0 122.31 115.419">
  <g id="Group_8631" data-name="Group 8631" transform="translate(-1022.284 -59.276)">
    <g id="Rectangle_4131" data-name="Rectangle 4131" transform="translate(1022.284 59.276)" fill="#fff" stroke="#b5daf2" stroke-width="2" stroke-dasharray="10 5">
      <rect width="96" height="87" stroke="none"/>
      <rect x="1" y="1" width="94" height="85" fill="none"/>
    </g>
    <path id="Path_17233" data-name="Path 17233" d="M8077.088-2799.766v-60.165a6.435,6.435,0,0,1,1.066-4.017,3.908,3.908,0,0,1,3.551-1.226H8122.9l10.45,12.281v53.127Z" transform="translate(-7033.637 2942.583)" fill="#f5f5f5"/>
    <path id="Path_17234" data-name="Path 17234" d="M8137.989-2865.08v8.772a2.857,2.857,0,0,0,.6,1.689,2.923,2.923,0,0,0,1.7.612h8.342Z" transform="translate(-7048.833 2942.547)" fill="#ece7e7"/>
    <g id="Path_17232" data-name="Path 17232" transform="translate(1071.061 95.955)" fill="#fff">
      <path d="M 72.53329467773438 77.73991394042969 L 1.000002861022949 77.73991394042969 L 1.000002861022949 48.25823593139648 L 43.76103591918945 48.25823593139648 L 44.76103591918945 48.25823593139648 L 44.76103591918945 47.25823593139648 L 44.76103591918945 1.000001430511475 L 72.53329467773438 1.000001430511475 L 72.53329467773438 77.73991394042969 Z" stroke="none"/>
      <path d="M 71.53329467773438 76.73990631103516 L 71.53329467773438 2.000004053115845 L 45.76103591918945 2.000004053115845 L 45.76103591918945 49.25822830200195 L 2.000000238418579 49.25822830200195 L 2.000000238418579 76.73990631103516 L 71.53329467773438 76.73990631103516 M 73.53329467773438 78.73990631103516 L 2.800436504912795e-07 78.73990631103516 L 2.800436504912795e-07 47.25822830200195 L 43.76103591918945 47.25822830200195 L 43.76103591918945 4.029038336739177e-06 L 73.53329467773438 4.029038336739177e-06 L 73.53329467773438 78.73990631103516 Z" stroke="none" fill="#6a99cb"/>
    </g>
    <g id="Icon_feather-link-2" data-name="Icon feather-link-2" transform="translate(1054.699 104.4)">
      <path id="Path_17235" data-name="Path 17235" d="M23.668,10.5h4.75a7.917,7.917,0,1,1,0,15.834h-4.75m-9.5,0H9.417a7.917,7.917,0,1,1,0-15.834h4.75" transform="translate(-1.5 -10.5)" fill="none" stroke="#6a99cb" stroke-linecap="round" stroke-linejoin="round" stroke-width="2"/>
      <path id="Path_17236" data-name="Path 17236" d="M12,18H24.667" transform="translate(-0.916 -10.083)" fill="none" stroke="#6a99cb" stroke-linecap="round" stroke-linejoin="round" stroke-width="2"/>
    </g>
  </g>
</svg>
