<svg xmlns="http://www.w3.org/2000/svg" width="161.281" height="131.301" viewBox="0 0 161.281 131.301">
  <g id="Group_8150" data-name="Group 8150" transform="translate(-817.107 -1156.106)">
    <path id="Path_17122" data-name="Path 17122" d="M-4088.562-21556.992s14.967-10.1,12.787-32.373-6.074-26.785-6.074-26.785l-9.066,3.814,5.553-32.068,25.82,15.967-6.889,3.566s10.278,18.377,5.295,39.713S-4088.562-21556.992-4088.562-21556.992Z" transform="translate(5034.891 22841.326)" fill="none" stroke="#b5daf2" stroke-width="3" stroke-dasharray="5 3"/>
    <path id="Path_17123" data-name="Path 17123" d="M-4215.9-21698.379s12.3-4.205,22.426-1.557,13.926,6.465,13.926,6.465l-8.121,6.928,31.761,5.523-3.608-26.889-7.171,5.014s-15.885-10.9-28.188-6.385A94.4,94.4,0,0,0-4215.9-21698.379Z" transform="translate(5066.079 22867.998)" fill="none" stroke="#b5daf2" stroke-width="3" stroke-dasharray="5 3"/>
    <g id="Group_8149" data-name="Group 8149" transform="translate(818.143 1192.758)">
      <path id="Path_17125" data-name="Path 17125" d="M-4250.611-21628.148v16.848a28.476,28.476,0,0,0,1.645,9.5c2.092,5.652,6.806,12.115,14.044,17.262,12.926,9.188,30.632,10.063,30.632,10.063l6.35-16.893-.479-22.162-20.845-1.8s10.974-7.523,27.793-7.055,21.084,6.217,21.084,6.217v-4.441l24.614,1.916v17.574l7.132,4.357,3-7.066v-27.316s-29.959-19.314-58.7-18.564S-4250.611-21628.148-4250.611-21628.148Z" transform="translate(4250.613 21662.225)" fill="#ece7e7" stroke="#6a99cb" stroke-width="2"/>
      <path id="Path_17124" data-name="Path 17124" d="M-4204.084-21601.918l5.917-16.2s-15.262-2.8-20.557-10.588,3.03-14.225,3.03-14.225,5.458-5.812,18.929-6.646,20.09,2.65,20.09,2.65,8.467,3.385,10.746,10.744a9.013,9.013,0,0,1-4.049,10.746l24.138,10.434s9.5-8.252,10.124-19.623-11.369-19.154-11.369-19.154-13.938-9.461-30.836-12.148-36.753,1.4-36.753,1.4-15.262,2.336-26.475,12.459-9.345,19.469-9.345,19.469.155,11.365,14.328,20.555S-4204.084-21601.918-4204.084-21601.918Z" transform="translate(4250.612 21666.84)" fill="#fff" stroke="#6a99cb" stroke-width="2"/>
      <path id="Path_17127" data-name="Path 17127" d="M-4140.585-21596.92v-12.939l24.319,10.422.479,5.992Z" transform="translate(4220.928 21651.469)" fill="#abaff5" stroke="#6a99cb" stroke-width="2"/>
      <path id="Path_17126" data-name="Path 17126" d="M-4187.111-21555.053v-22.687" transform="translate(4233.48 21642.801)" fill="none" stroke="#6a99cb" stroke-width="2"/>
    </g>
    <g id="Group_8148" data-name="Group 8148" transform="translate(871.538 1240.629)">
      <path id="Path_17121" data-name="Path 17121" d="M-4177.491-21550.854v-23.037l58.545-12.986v21.8a57.9,57.9,0,0,1-23.723,11.979C-4157.3-21549.543-4177.491-21550.854-4177.491-21550.854Z" transform="translate(4177.491 21597.395)" fill="#ece7e7"/>
      <path id="Path_17120" data-name="Path 17120" d="M-4171.38-21594.691l-6.11,17.25s19.108,1.285,33.783-2.039a69.96,69.96,0,0,0,24.917-11.26l-24.917-10.541a37.2,37.2,0,0,1-12.339,5.75C-4162.965-21593.883-4171.38-21594.691-4171.38-21594.691Z" transform="translate(4177.491 21601.281)" fill="#fff"/>
    </g>
  </g>
</svg>
