<svg xmlns="http://www.w3.org/2000/svg" width="983.767" height="147.949" viewBox="0 0 983.767 147.949">
  <g id="Group_8620" data-name="Group 8620" transform="translate(4854.067 5710.975)">
    <g id="Group_8618" data-name="Group 8618" transform="translate(165.933 149.975)">
      <path id="Path_17220" data-name="Path 17220" d="M-5020-5676.5v56.97h41.926l-29.1-56.97Z" transform="translate(0 -93.47)"/>
      <path id="Path_17221" data-name="Path 17221" d="M-5020-5763.515V-5801h31.568s13.614-.479,13.614,18.347-13.614,19.14-13.614,19.14Z" transform="translate(0 -30.379)"/>
      <path id="Subtraction_140" data-name="Subtraction 140" d="M94.856,145.932H32.981L0,90.979a29.614,29.614,0,0,0,5.153-1.172A39.639,39.639,0,0,0,16.49,84.163c7.523-5.44,16.49-16.355,16.49-37.465S24.013,14.016,16.49,8.025A43.36,43.36,0,0,0,5.153,1.55,31.523,31.523,0,0,0,0,0H63.042L95.056,29.3l-.2,116.636ZM43.979,121.314v7.892H69.628v-7.892Zm0-19.237v7.892H76.534v-7.892Zm0-19.237v7.892H82.452V82.84Z" transform="translate(-4969.275 -5860.949)"/>
      <path id="Path_17223" data-name="Path 17223" d="M-4789.351-5860.949v29.186h32.1Z" transform="translate(-116.882)" fill="#8b8b8b"/>
    </g>
    <path id="Path_17224" data-name="Path 17224" d="M63.8,0H48L31.3-28.7h-11V0H6.7L6.6-70h27q10.3,0,16.45,5.65T56.2-49.3a20.032,20.032,0,0,1-2.9,10.65,19.453,19.453,0,0,1-8.1,7.35ZM20.3-58.3v17.9H31.5q5.2,0,8.1-2.35a7.961,7.961,0,0,0,2.9-6.55,8.1,8.1,0,0,0-2.9-6.6q-2.9-2.4-8.1-2.4Zm90.1,31.4q0,3-.2,5H72.8A14.284,14.284,0,0,0,77.1-13,12.681,12.681,0,0,0,86-9.8a13.047,13.047,0,0,0,7.4-2,9.6,9.6,0,0,0,4-5.7l11.8,3.2a19.329,19.329,0,0,1-8.3,11.1A27.271,27.271,0,0,1,85.8.8Q73.9.8,67.05-6.95A26.668,26.668,0,0,1,60.2-25.2a27.329,27.329,0,0,1,6.55-18.3q6.55-7.7,18.35-7.7,12,0,18.65,7.35A24.513,24.513,0,0,1,110.4-26.9ZM73.1-31.1H96.9a11.941,11.941,0,0,0-3.5-7.6q-3-2.9-8.3-2.9a11.639,11.639,0,0,0-7.85,2.7A13.232,13.232,0,0,0,73.1-31.1ZM132,.8q-8.5,0-14.2-4.35A22.034,22.034,0,0,1,110-14.1l10.3-4.2a13.751,13.751,0,0,0,4.2,6.7A11.043,11.043,0,0,0,132-9a9.031,9.031,0,0,0,5.65-1.65,4.946,4.946,0,0,0,2.15-4.05q0-2.6-2.85-4.1a29.238,29.238,0,0,0-6.85-2.45q-4-.95-8.05-2.35a15.469,15.469,0,0,1-6.9-4.8,13.082,13.082,0,0,1-2.85-8.7,12.5,12.5,0,0,1,4.9-10.1q4.9-4,13-4a24.813,24.813,0,0,1,13.05,3.4,15.288,15.288,0,0,1,7.25,8.9l-10.2,4.3a9.62,9.62,0,0,0-3.8-5.35,10.454,10.454,0,0,0-6.1-1.95,8.512,8.512,0,0,0-4.85,1.25,3.859,3.859,0,0,0-1.85,3.35q0,2.4,2.85,3.7a33.138,33.138,0,0,0,6.9,2.15,69.208,69.208,0,0,1,8.15,2.25,14.879,14.879,0,0,1,6.95,5,14.532,14.532,0,0,1,2.85,9.3A14.052,14.052,0,0,1,146-3.75Q140.6.8,132,.8Zm70.5-51.2V0H189.9V-7.6a18.61,18.61,0,0,1-6.65,6.1A18.96,18.96,0,0,1,173.9.8q-8.2,0-13.3-5t-5.1-13.2v-33h12.6v30a10.12,10.12,0,0,0,2.6,7.25,9.175,9.175,0,0,0,7,2.75,10.27,10.27,0,0,0,9-4.7q3.2-4.7,3.2-13.2V-50.4ZM209.8,0V-50.4h12.6v7.7a15.623,15.623,0,0,1,14.5-8.5q12.1,0,15.7,9.5a17.888,17.888,0,0,1,6.6-6.8,18.918,18.918,0,0,1,10.1-2.7q8.1,0,13.05,4.75A16.224,16.224,0,0,1,287.3-34.2V0H274.7V-30.7a10.211,10.211,0,0,0-2.4-7.2,8.793,8.793,0,0,0-6.8-2.6,9.116,9.116,0,0,0-7.85,4q-2.85,4-2.85,10.8V0H242.2V-30.7a10.348,10.348,0,0,0-2.35-7.2,8.5,8.5,0,0,0-6.65-2.6,9.175,9.175,0,0,0-7.95,4.05Q222.4-32.4,222.4-25.6V0ZM342-26.9q0,3-.2,5H304.4a14.284,14.284,0,0,0,4.3,8.9,12.681,12.681,0,0,0,8.9,3.2,13.047,13.047,0,0,0,7.4-2,9.6,9.6,0,0,0,4-5.7l11.8,3.2a19.329,19.329,0,0,1-8.3,11.1,27.271,27.271,0,0,1-15.1,4q-11.9,0-18.75-7.75A26.668,26.668,0,0,1,291.8-25.2a27.329,27.329,0,0,1,6.55-18.3q6.55-7.7,18.35-7.7,12,0,18.65,7.35A24.513,24.513,0,0,1,342-26.9Zm-37.3-4.2h23.8a11.941,11.941,0,0,0-3.5-7.6q-3-2.9-8.3-2.9a11.639,11.639,0,0,0-7.85,2.7A13.232,13.232,0,0,0,304.7-31.1ZM361.9-12a18.543,18.543,0,0,0,4.7.6q4.7,0,7-2.4t2.3-7.7V-70h13v48.8q0,10.8-5.25,16.25T369.4.5a32.761,32.761,0,0,1-7.5-.8Zm76.7,5.45Q431.2.8,419.7.8T400.8-6.55q-7.4-7.35-7.4-18.65t7.4-18.65q7.4-7.35,18.9-7.35t18.9,7.35Q446-36.5,446-25.2T438.6-6.55Zm-28.75-7.7a12.644,12.644,0,0,0,9.85,4.15,12.573,12.573,0,0,0,9.85-4.2,15.75,15.75,0,0,0,3.75-10.9,15.75,15.75,0,0,0-3.75-10.9,12.573,12.573,0,0,0-9.85-4.2,12.644,12.644,0,0,0-9.85,4.15Q406.1-32,406.1-25.2T409.85-14.25ZM477.5.8A20.274,20.274,0,0,1,468.9-1a13.126,13.126,0,0,1-5.8-4.8V0H450.5V-70.8h12.6v26q4.9-6.4,14.6-6.4,11,0,17.4,7.15t6.4,18.85q0,11.7-6.4,18.85T477.5.8Zm-1.8-10.9a12.224,12.224,0,0,0,9.65-4.15Q489-18.4,489-25.2t-3.65-10.95a12.224,12.224,0,0,0-9.65-4.15,12.338,12.338,0,0,0-9.75,4.15Q462.3-32,462.3-25.2t3.65,10.95A12.338,12.338,0,0,0,475.7-10.1ZM525.5,0V-70h15.3l21.4,50.7L583.6-70h15.3V0H586.1V-44.7L567.3,0H557.1L538.3-44.7V0ZM626-51.2q10.1,0,16.15,5.35T648.2-30.7V0H636V-7.3a15.088,15.088,0,0,1-6.25,5.9A18.62,18.62,0,0,1,620.9.8q-7.4,0-12.1-4.25a13.866,13.866,0,0,1-4.7-10.75q0-14.4,22.5-16.8l9.4-.9v-.5a8.655,8.655,0,0,0-2.7-6.75A10.452,10.452,0,0,0,626-41.6a10.044,10.044,0,0,0-6.85,2.4A9.383,9.383,0,0,0,616-32.8l-11.2-2a18.012,18.012,0,0,1,7.15-11.9A22.63,22.63,0,0,1,626-51.2ZM623.7-8.5a11.3,11.3,0,0,0,9-3.8,13.97,13.97,0,0,0,3.3-9.5v-1.1l-9.6,1.1a15.99,15.99,0,0,0-7.5,2.5,5.651,5.651,0,0,0-2.6,4.7,5.506,5.506,0,0,0,2,4.4A8.064,8.064,0,0,0,623.7-8.5Zm60.8,8A23.732,23.732,0,0,1,676.4.8q-8,0-12.9-4.4t-4.9-12.9V-39.8h-8.5V-50.4h8.5V-65.2h12.6v14.8h12.7v10.6H671.2v22.1a7.874,7.874,0,0,0,1.75,5.45,6.062,6.062,0,0,0,4.75,1.95,13.1,13.1,0,0,0,5.9-1.2ZM710.1.8q-11.3,0-18.45-7.25T684.5-25.2q0-11.5,7.15-18.75T710.1-51.2q9.7,0,16.05,4.7a18.983,18.983,0,0,1,7.65,12.7l-12.3,2.4a10.428,10.428,0,0,0-3.65-6.45,11.118,11.118,0,0,0-7.35-2.45,11.729,11.729,0,0,0-9.4,4.1q-3.5,4.1-3.5,11t3.5,11a11.729,11.729,0,0,0,9.4,4.1,11.343,11.343,0,0,0,7.25-2.25,10.691,10.691,0,0,0,3.75-6.35l12.3,2.5a18.75,18.75,0,0,1-7.75,12.45Q719.7.8,710.1.8ZM738.3,0V-70.8h12.6v28.2q5.2-8.6,16-8.6,8.5,0,13.65,5T785.7-33V0H773.1V-29.9a10,10,0,0,0-2.7-7.4,9.864,9.864,0,0,0-7.3-2.7,10.24,10.24,0,0,0-9,4.75q-3.2,4.75-3.2,13.35V0Z" transform="translate(-4656 -5602)"/>
  </g>
</svg>
